<svg width="323" height="576" viewBox="0 0 323 576" fill="none" xmlns="http://www.w3.org/2000/svg">
<g opacity="0.45">
<path fill-rule="evenodd" clip-rule="evenodd" d="M241.67 197.959C265.937 197.959 285.61 217.655 285.61 241.951C285.61 266.246 265.937 285.942 241.67 285.942C217.4 285.942 197.729 266.246 197.729 241.951C197.729 217.655 217.4 197.959 241.67 197.959ZM120.541 418.52L263.802 561.949L241.775 584L98.5143 440.573L76.4866 418.52L120.546 374.402L117.122 370.974L117.097 371.002C83.3725 338.364 62.3942 292.618 62.3942 241.951C62.3942 209.664 70.9116 179.374 85.8157 153.197L108.884 176.294C99.0965 196.085 93.5912 218.371 93.5912 241.951C93.5912 283.993 111.071 321.938 139.154 348.919L164.602 374.412L142.575 396.465L120.541 418.52ZM59.5252 82.769L60.8976 81.3967C67.2943 74.1809 74.1093 67.3552 81.3168 60.9543L81.5569 60.7117L81.571 60.7255L103.752 82.932L125.795 105.001C157.046 78.4749 197.488 62.4661 241.67 62.4661C284.123 62.4661 323.124 77.2426 353.833 101.939L327.431 121.075C303.234 103.837 273.632 93.7018 241.67 93.7018C204.184 93.7018 169.964 107.65 143.88 130.641L130.506 144.031C128.977 145.768 127.487 147.546 126.037 149.355L125.612 148.932L103.861 127.152L81.8036 105.071C50.3244 141.88 31.3162 189.689 31.3162 241.951C31.3162 291.638 48.5113 337.296 77.2605 373.311L54.9868 395.611C20.6354 353.823 0 300.3 0 241.951C0 181.036 22.4979 125.383 59.609 82.8529L59.5252 82.769ZM427.482 87.077L428.47 88.4444C434.701 96.0332 440.479 104.012 445.765 112.336L445.747 112.345L420.333 130.762L395.084 149.056C411.491 176.154 420.944 207.945 420.944 241.951C420.944 288.711 403.077 331.287 373.805 363.229L351.729 341.127C375.36 314.86 389.746 280.086 389.746 241.951C389.746 213.03 381.472 186.046 367.171 163.237L355.698 147.371C354.27 145.642 352.801 143.947 351.296 142.288L351.774 141.94L376.693 123.887L401.949 105.578C363.37 60.1699 305.882 31.3519 241.67 31.3519C200.217 31.3519 161.568 43.3657 128.995 64.0903L106.37 41.44C144.977 15.2778 191.539 0 241.67 0C316.323 0 383.064 33.8857 427.39 87.142L427.482 87.077ZM460.846 139.913C475.27 170.917 483.338 205.485 483.338 241.951C483.338 328.559 437.877 404.519 369.561 447.264L361.309 439.002L346.748 424.424L276.223 353.815L268.851 346.431L249.891 327.45C293.416 323.308 327.467 286.614 327.467 241.951C327.467 194.51 289.055 156.054 241.67 156.054C194.285 156.054 155.874 194.51 155.874 241.951C155.874 266.762 166.383 289.108 183.185 304.791L351.927 473.72L329.9 495.773L329.86 495.733L307.826 517.795L307.866 517.834L285.839 539.888L285.794 539.847L263.762 517.79L164.607 418.52L186.635 396.467L285.794 495.737L307.828 473.675L161.181 326.857C138.741 305.526 124.747 275.375 124.747 241.951C124.747 177.301 177.096 124.891 241.67 124.891C306.244 124.891 358.594 177.301 358.594 241.951C358.594 282.756 337.735 318.678 306.116 339.631L372.922 406.516C421.132 367.927 452.021 308.552 452.021 241.951C452.021 212.374 445.919 184.23 434.929 158.689L460.846 139.913Z" fill="#313936"/>
</g>
</svg>
