<svg width="39" height="47" viewBox="0 0 39 47" fill="none" xmlns="http://www.w3.org/2000/svg">
<path fill-rule="evenodd" clip-rule="evenodd" d="M19.0875 15.617C21.0041 15.617 22.558 17.1708 22.558 19.0875C22.558 21.0042 21.0041 22.558 19.0875 22.558C17.1706 22.558 15.617 21.0042 15.617 19.0875C15.617 17.1708 17.1706 15.617 19.0875 15.617ZM9.52049 33.0171L20.8355 44.3322L19.0957 46.0718L7.78076 34.7568L6.04104 33.0171L9.52087 29.5367L9.25044 29.2662L9.24842 29.2685C6.58484 26.6936 4.92792 23.0847 4.92792 19.0875C4.92792 16.5405 5.60064 14.1509 6.77779 12.0858L8.59981 13.9079C7.82682 15.4692 7.39193 17.2274 7.39193 19.0875C7.39193 22.4043 8.7725 25.3977 10.9905 27.5263L13.0006 29.5374L11.2608 31.2772L9.52049 33.0171ZM4.70134 6.52968L4.80979 6.42142C5.31495 5.85223 5.85322 5.31369 6.42247 4.80874L6.44144 4.78957L6.44255 4.79068L8.19447 6.54261L9.93548 8.28362C12.4037 6.19092 15.5978 4.92804 19.0875 4.92804C22.4405 4.92804 25.5208 6.09377 27.9464 8.0421L25.8611 9.5517C23.9499 8.19172 21.6118 7.39217 19.0875 7.39217C16.1268 7.39217 13.4239 8.49256 11.3639 10.3063L10.3076 11.3627C10.1868 11.4996 10.0691 11.6399 9.95465 11.7826L9.92093 11.7493L8.20311 10.0311L6.46099 8.28914C3.97471 11.193 2.47335 14.9646 2.47335 19.0875C2.47335 23.0074 3.83144 26.6093 6.10216 29.4505L4.34289 31.2098C1.62982 27.9131 0 23.6907 0 19.0875C0 14.2819 1.77693 9.89156 4.70796 6.5363L4.70134 6.52968ZM33.7631 6.86955L33.8412 6.97742C34.3333 7.5761 34.7897 8.20555 35.2072 8.86223L35.2058 8.86294L33.1985 10.3159L31.2044 11.759C32.5003 13.8968 33.2468 16.4048 33.2468 19.0875C33.2468 22.7765 31.8357 26.1352 29.5237 28.6552L27.7801 26.9116C29.6465 24.8394 30.7828 22.0961 30.7828 19.0875C30.7828 16.806 30.1292 14.6772 28.9998 12.8778L28.0937 11.6262C27.9808 11.4897 27.8648 11.356 27.7459 11.2252L27.7836 11.1977L29.7518 9.77356L31.7466 8.32909C28.6995 4.74684 24.1591 2.47339 19.0875 2.47339C15.8134 2.47339 12.7609 3.42115 10.1883 5.05618L8.40119 3.26931C11.4504 1.20531 15.128 3.05176e-05 19.0875 3.05176e-05C24.9836 3.05176e-05 30.2549 2.67336 33.756 6.87468L33.7631 6.86955ZM36.3984 11.0377C37.5376 13.4837 38.1748 16.2108 38.1748 19.0875C38.1748 25.92 34.5843 31.9125 29.1885 35.2846L28.5368 34.6329L27.3867 33.4828L21.8165 27.9126L21.2342 27.3301L19.7367 25.8326C23.1745 25.5058 25.8638 22.611 25.8638 19.0875C25.8638 15.3449 22.83 12.3111 19.0875 12.3111C15.3449 12.3111 12.3111 15.3449 12.3111 19.0875C12.3111 21.0449 13.1412 22.8078 14.4682 24.0449L27.7957 37.3717L26.056 39.1115L26.0529 39.1084L24.3126 40.8489L24.3157 40.852L22.5759 42.5918L22.5725 42.5886L20.8323 40.8485L13.0009 33.0171L14.7407 31.2773L22.5725 39.1087L24.3127 37.3683L12.7303 25.7858C10.9579 24.1029 9.85261 21.7244 9.85261 19.0875C9.85261 13.9874 13.9874 9.85266 19.0875 9.85266C24.1876 9.85266 28.3223 13.9874 28.3223 19.0875C28.3223 22.3067 26.6748 25.1405 24.1774 26.7936L29.454 32.07C33.2617 29.0258 35.7014 24.3417 35.7014 19.0875C35.7014 16.7543 35.2194 14.534 34.3514 12.519L36.3984 11.0377Z" fill="white"/>
</svg>
