<svg width="48" height="43" viewBox="0 0 48 43" fill="none" xmlns="http://www.w3.org/2000/svg">
<path d="M6.78113 0C6.48261 7.28323e-05 6.1909 0.0892081 5.94332 0.256001C5.69574 0.422794 5.50355 0.659659 5.39135 0.936291C5.27914 1.21292 5.25202 1.51674 5.31346 1.80887C5.37489 2.10101 5.52209 2.36817 5.73621 2.57617L7.15027 3.99023C7.28849 4.13419 7.45404 4.24912 7.63723 4.3283C7.82043 4.40747 8.01757 4.4493 8.21713 4.45133C8.41669 4.45336 8.61465 4.41555 8.79942 4.34012C8.98418 4.26468 9.15204 4.15314 9.29315 4.01202C9.43427 3.87091 9.54581 3.70305 9.62125 3.51829C9.69668 3.33352 9.73449 3.13556 9.73246 2.936C9.73043 2.73645 9.6886 2.5393 9.60943 2.3561C9.53025 2.17291 9.41532 2.00736 9.27136 1.86914L7.8573 0.455078C7.71748 0.311092 7.5502 0.196626 7.36534 0.118457C7.18049 0.0402889 6.98183 8.00525e-06 6.78113 0ZM41.1737 0.00195312C40.7841 0.0133064 40.4143 0.175816 40.1425 0.455078L38.7284 1.86914C38.5844 2.00736 38.4695 2.17291 38.3903 2.3561C38.3111 2.5393 38.2693 2.73645 38.2673 2.93601C38.2653 3.13557 38.3031 3.33353 38.3785 3.51829C38.4539 3.70306 38.5655 3.87092 38.7066 4.01203C38.8477 4.15315 39.0156 4.26469 39.2003 4.34013C39.3851 4.41556 39.5831 4.45337 39.7826 4.45134C39.9822 4.44931 40.1793 4.40748 40.3625 4.3283C40.5457 4.24913 40.7113 4.13419 40.8495 3.99023L42.2635 2.57617C42.4799 2.36542 42.6277 2.09424 42.6874 1.79814C42.7472 1.50203 42.7161 1.19479 42.5983 0.916621C42.4806 0.638453 42.2816 0.402317 42.0274 0.239117C41.7732 0.0759177 41.4757 -0.00674309 41.1737 0.00195312ZM23.9999 2.23438C16.2897 2.23661 9.99988 8.50568 9.99988 16.2188C9.99988 20.2182 11.6913 23.8382 14.3886 26.3867C14.7058 26.6863 14.9388 27.1083 15.0468 27.5918L17.5136 38.6953C17.9691 40.746 19.8055 42.2188 21.9061 42.2188H23.9999H26.0936C28.1945 42.2188 30.0304 40.7459 30.4862 38.6953L32.955 27.5918V27.5898C33.0619 27.1077 33.2936 26.6881 33.6112 26.3887V26.3867H33.6132C36.3092 23.8384 37.9999 20.2182 37.9999 16.2188C37.9999 8.50568 31.7101 2.23661 23.9999 2.23438ZM23.9999 5.23438C30.0937 5.23614 34.9999 10.1278 34.9999 16.2188C34.9999 19.3753 33.6745 22.1995 31.5507 24.207C30.7535 24.9593 30.2501 25.9284 30.0253 26.9414L28.8534 32.2188H19.1464L17.9745 26.9395C17.7484 25.9269 17.2459 24.9594 16.4491 24.207C14.3244 22.1995 12.9999 19.3753 12.9999 16.2188C12.9999 10.1278 17.9061 5.23614 23.9999 5.23438ZM1.49988 13.2188C1.30111 13.2159 1.10377 13.2527 0.919315 13.3268C0.734862 13.4009 0.566981 13.5109 0.425426 13.6505C0.283872 13.7901 0.171468 13.9564 0.094746 14.1398C0.0180244 14.3232 -0.0214844 14.52 -0.0214844 14.7188C-0.0214844 14.9175 0.0180244 15.1143 0.094746 15.2977C0.171468 15.4811 0.283872 15.6474 0.425426 15.787C0.566981 15.9266 0.734862 16.0366 0.919315 16.1107C1.10377 16.1848 1.30111 16.2216 1.49988 16.2188H4.49988C4.69865 16.2216 4.89599 16.1848 5.08044 16.1107C5.2649 16.0366 5.43278 15.9266 5.57433 15.787C5.71589 15.6474 5.82829 15.4811 5.90501 15.2977C5.98173 15.1143 6.02124 14.9175 6.02124 14.7188C6.02124 14.52 5.98173 14.3232 5.90501 14.1398C5.82829 13.9564 5.71589 13.7901 5.57433 13.6505C5.43278 13.5109 5.2649 13.4009 5.08044 13.3268C4.89599 13.2527 4.69865 13.2159 4.49988 13.2188H1.49988ZM43.4999 13.2188C43.3011 13.2159 43.1038 13.2527 42.9193 13.3268C42.7349 13.4009 42.567 13.5109 42.4254 13.6505C42.2839 13.7901 42.1715 13.9564 42.0947 14.1398C42.018 14.3232 41.9785 14.52 41.9785 14.7188C41.9785 14.9175 42.018 15.1143 42.0947 15.2977C42.1715 15.4811 42.2839 15.6474 42.4254 15.787C42.567 15.9266 42.7349 16.0366 42.9193 16.1107C43.1038 16.1848 43.3011 16.2216 43.4999 16.2188H46.4999C46.6986 16.2216 46.896 16.1848 47.0804 16.1107C47.2649 16.0366 47.4328 15.9266 47.5743 15.787C47.7159 15.6474 47.8283 15.4811 47.905 15.2977C47.9817 15.1143 48.0212 14.9175 48.0212 14.7188C48.0212 14.52 47.9817 14.3232 47.905 14.1398C47.8283 13.9564 47.7159 13.7901 47.5743 13.6505C47.4328 13.5109 47.2649 13.4009 47.0804 13.3268C46.896 13.2527 46.6986 13.2159 46.4999 13.2188H43.4999ZM39.7733 24.9922C39.4748 24.9923 39.1831 25.0814 38.9355 25.2482C38.6879 25.415 38.4957 25.6518 38.3835 25.9285C38.2713 26.2051 38.2442 26.5089 38.3056 26.8011C38.3671 27.0932 38.5143 27.3604 38.7284 27.5684L40.1425 28.9824C40.2807 29.1264 40.4462 29.2413 40.6294 29.3205C40.8126 29.3997 41.0098 29.4415 41.2093 29.4435C41.4089 29.4455 41.6068 29.4077 41.7916 29.3323C41.9764 29.2569 42.1442 29.1453 42.2853 29.0042C42.4265 28.8631 42.538 28.6952 42.6134 28.5105C42.6889 28.3257 42.7267 28.1277 42.7246 27.9282C42.7226 27.7286 42.6808 27.5315 42.6016 27.3483C42.5224 27.1651 42.4075 26.9995 42.2635 26.8613L40.8495 25.4473C40.7097 25.3033 40.5424 25.1888 40.3575 25.1106C40.1727 25.0325 39.974 24.9922 39.7733 24.9922ZM8.18152 24.9941C7.79196 25.0055 7.42211 25.168 7.15027 25.4473L5.73621 26.8613C5.59225 26.9995 5.47732 27.1651 5.39814 27.3483C5.31897 27.5315 5.27714 27.7286 5.27511 27.9282C5.27309 28.1278 5.31089 28.3257 5.38633 28.5105C5.46176 28.6952 5.5733 28.8631 5.71442 29.0042C5.85554 29.1453 6.02339 29.2569 6.20816 29.3323C6.39292 29.4077 6.59088 29.4455 6.79044 29.4435C6.99 29.4415 7.18715 29.3997 7.37034 29.3205C7.55353 29.2413 7.71908 29.1264 7.8573 28.9824L9.27136 27.5684C9.48776 27.3576 9.6355 27.0864 9.69523 26.7903C9.75497 26.4942 9.72392 26.187 9.60615 25.9088C9.48838 25.6306 9.28938 25.3945 9.03519 25.2313C8.781 25.0681 8.48347 24.9854 8.18152 24.9941ZM19.8143 35.2188H28.1854L27.5585 38.0449C27.4043 38.7384 26.8048 39.2188 26.0936 39.2188H23.9999H21.9061C21.1928 39.2188 20.5957 38.7402 20.4413 38.0449L19.8143 35.2188Z" fill="#1C4734"/>
</svg>
